<svg xmlns="http://www.w3.org/2000/svg" viewBox="0 0 34.4 26.92">
  <defs>
    <style>
      .ba-1 {
        fill: #fdba12;
      }

      .ba-2 {
        fill: #ffce00;
      }
    </style>
  </defs>
  <path class="ba-1" d="M9.24,29.79s10.59,2.49,16.6-.17S33,24.44,33,24.44a38.13,38.13,0,0,0,3.81-7,26.83,26.83,0,0,1,1.32-3.56c.79-.88,1.28.71,1.28.71l-.54,3.26a32.25,32.25,0,0,1,.88,6.76A15.65,15.65,0,0,1,33.14,36c-4.88,3.24-11,3.23-15.67,1.59s-8.54-6.7-8.54-6.7Z" transform="translate(-6.69 -11.7)"/>
  <path class="ba-2" d="M7.14,23.72s10.18,3.84,16.48,2,7.76-4.2,7.76-4.2A38.86,38.86,0,0,0,36.07,15c2-3.56,2.88-.45,2.88-.45l-1.34,2.59a13.24,13.24,0,0,1,.45,5.35,15.64,15.64,0,0,1-8,10.42c-5.26,2.59-11.34,1.78-15.74-.44s-7.61-7.75-7.61-7.75Z" transform="translate(-6.69 -11.7)"/>
  <rect class="ba-1" x="28.47" width="5.93" height="2.85"/>
</svg>