<svg xmlns="http://www.w3.org/2000/svg" viewBox="0 0 22 22">
  <g
        fill='none'
        stroke='current'
        stroke-linecap= 'round'
        stroke-linejoin= 'round'
        stroke-width= '1.2px'>
  <path stroke-linecap= 'round' d="M6.27,12.2,5.14,15.3l5.21-3.1h1.89a3,3,0,0,0,3-3v-5a3,3,0,0,0-3-3H3.76a3,3,0,0,0-3,3v5a3,3,0,0,0,3,3Z" transform="translate(0.27 -0.1)"/>
  <path stroke-linecap= 'round' d="M15.71,5.3h1a3,3,0,0,1,3,3v5a3,3,0,0,1-3,3h-2.5l1.13,3.1-5.22-3.1H8.28A3,3,0,0,1,6,15.3" transform="translate(0.27 -0.1)"/>
  <circle  fill='#4d4c54' stroke-width= '0px' cx="4.6" cy="6.47" r="0.97"/>
  <circle fill='#4d4c54' stroke-width= '0px' cx="8.01" cy="6.47" r="0.97"/>
  <circle fill='#4d4c54' stroke-width= '0px' cx="11.43" cy="6.47" r="0.97"/>
  </g>
</svg>
