<svg id="Layer_1" data-name="Layer 1" xmlns="http://www.w3.org/2000/svg" viewBox="0 0 176.39 31.38"><defs><style>.cls-1{fill:#90bd1a;}.cls-2{fill:#ffc005;}</style></defs><ellipse class="cls-1" cx="34.5" cy="5" rx="4.5" ry="4.5"/><ellipse class="cls-1" cx="7.5" cy="5" rx="4.5" ry="4.5"/><path class="cls-2" d="M62.81,9.49A7,7,0,0,0,62.51,8a2.06,2.06,0,0,0-.75-1.12,2.45,2.45,0,0,0-1.41-.43A2,2,0,0,0,58.88,7,2.87,2.87,0,0,0,58.2,8.1,4.6,4.6,0,0,0,58,9.35c0,.39,0,.69,0,.91v4.26c0,.17,0,.33,0,.48l-4.42,0V13c0-.63,0-1.24,0-1.82s0-.95,0-1.19l-.06-.89a4.58,4.58,0,0,0-.21-1,2.4,2.4,0,0,0-2.47-1.64,1.89,1.89,0,0,0-1.21.39,2.71,2.71,0,0,0-.74.9,4.55,4.55,0,0,0-.38,1.11,5.07,5.07,0,0,0-.12,1.06V27a6.39,6.39,0,0,0,.08.94A4.88,4.88,0,0,0,48.72,29a2.5,2.5,0,0,0,.75,1,3.24,3.24,0,0,0,1.44.65,8.26,8.26,0,0,0,1.52.14h6.65a2.85,2.85,0,0,0,.4,0,4.45,4.45,0,0,0,.62-.12,4.19,4.19,0,0,0,.68-.23,2.07,2.07,0,0,0,.69-.47,4.57,4.57,0,0,0,.32-.35,2.29,2.29,0,0,0,.36-.54,4.8,4.8,0,0,0,.44-1.37c.09-.53.17-1,.21-1.57s.06-1,.06-1.36V12.44c0-.34,0-.78,0-1.32A14.84,14.84,0,0,0,62.81,9.49ZM57.92,26.05l-4.65,0V19.81l4.62,0Z" transform="translate(-1.31 -3.66)"/><path class="cls-2" d="M73.65,15.91a3.61,3.61,0,0,0-.82-.28l-.41-.05L72,15.53a.75.75,0,0,1-.21,0,1.67,1.67,0,0,0-.39,0h-.15a1.57,1.57,0,0,1-.36,0h-.3V13.37c0-.12,0-.25,0-.38a1.2,1.2,0,0,1,0-.32c0-.24,0-.47,0-.7s0-.44,0-.69,0-.75,0-1.13a8.83,8.83,0,0,0-.08-1.09,1.91,1.91,0,0,0,0-.43c0-.37-.09-.72-.14-1.05a2.2,2.2,0,0,0-.65-1.17,2.26,2.26,0,0,0-2.36-.47,1.77,1.77,0,0,0-.84.44,2.27,2.27,0,0,0-.5.81,6,6,0,0,0-.22.83,3.94,3.94,0,0,0-.07.71V27.84a10.89,10.89,0,0,0,.07,1.2A5,5,0,0,0,66,30.4a3.27,3.27,0,0,0,.81,1.18,2.29,2.29,0,0,0,1.4.54l.17,0a1.68,1.68,0,0,0,1.32-.57,2.43,2.43,0,0,0,.54-.86,4.06,4.06,0,0,0,.24-1,8.42,8.42,0,0,0,.09-1c0-.33,0-.64,0-.91v-.43c0-1.06,0-2.16,0-3.25V20.4c.27,0,.58,0,.92,0a7.3,7.3,0,0,0,1.35,0,3,3,0,0,0,1-.48,1.22,1.22,0,0,0,.46-.68l.15-.55c0-.19.07-.37.09-.53s0-.31,0-.49a1.81,1.81,0,0,0-.26-1A1.46,1.46,0,0,0,73.65,15.91Z" transform="translate(-1.31 -3.66)"/><path class="cls-2" d="M99,15.88a3.12,3.12,0,0,0-.81-.28l-.42,0-.38-.05a.68.68,0,0,1-.21,0,1.72,1.72,0,0,0-.39,0h-.15a1.53,1.53,0,0,1-.36,0H96v-2c0-.12,0-.25,0-.38a1.33,1.33,0,0,1,0-.32c0-.24,0-.48,0-.71s0-.43,0-.68,0-.75-.05-1.13,0-.77-.08-1.09a2,2,0,0,0,0-.43q-.08-.56-.15-1.05A2.14,2.14,0,0,0,95,6.41a2.26,2.26,0,0,0-2.36-.47,1.77,1.77,0,0,0-.84.44,2.14,2.14,0,0,0-.5.81,4.44,4.44,0,0,0-.22.83,3.94,3.94,0,0,0-.07.71V27.84q0,.53.06,1.2a5.4,5.4,0,0,0,.33,1.36,3,3,0,0,0,.81,1.18,2.28,2.28,0,0,0,1.39.54l.18,0a1.68,1.68,0,0,0,1.32-.57,2.52,2.52,0,0,0,.54-.86,5.41,5.41,0,0,0,.24-1c0-.33.07-.66.08-1s0-.64,0-.91v-.43c0-1.06,0-2.16,0-3.25V20.37c.27,0,.57,0,.91,0a8.29,8.29,0,0,0,1.35,0,3,3,0,0,0,1-.48,1.26,1.26,0,0,0,.47-.68c0-.19.1-.38.14-.55a2.8,2.8,0,0,0,.09-.53c0-.15,0-.31,0-.49a1.87,1.87,0,0,0-.26-1A1.48,1.48,0,0,0,99,15.88Z" transform="translate(-1.31 -3.66)"/><path class="cls-2" d="M89.67,26.74a1.37,1.37,0,0,0-.52-.62,3.2,3.2,0,0,0-1.22-.49q-.6-.12-1.17-.18l-1-.07c-.39,0-.78,0-1.18,0H81.77c-.43,0-.81,0-1.24,0-.12,0-.18,0-.18-.05a.23.23,0,0,1-.07-.14,2.46,2.46,0,0,1,0-.41,5.48,5.48,0,0,1,0-.81q0-.43,0-.9V11.11q0-.33,0-.66v-.7a7.77,7.77,0,0,0-.08-1.09,4.16,4.16,0,0,0-.3-1,1.77,1.77,0,0,0-.64-.85,2.55,2.55,0,0,0-.85-.4,2.29,2.29,0,0,0-.94,0,4,4,0,0,0-.82.21A2.28,2.28,0,0,0,75.3,7.85,5.18,5.18,0,0,0,75,9.29c0,.36,0,.78,0,1.24v1.33c0,.44,0,.82,0,1.12s0,.45,0,.5c0,.37,0,.74,0,1.11s0,.76,0,1.12v7.76c0,.69,0,1.39,0,2.11a10.62,10.62,0,0,0,.17,2.19,5.9,5.9,0,0,0,.29.93,2.91,2.91,0,0,0,.62.9,2.4,2.4,0,0,0,1,.6,5.83,5.83,0,0,0,1.08.19c.41,0,.81.05,1.19.09s.83.07,1.27.07h4.13l.77,0H86a7,7,0,0,0,.93-.07l.9-.13a2.71,2.71,0,0,0,1.41-.77,2.63,2.63,0,0,0,.61-1.55v-.3a1.29,1.29,0,0,0,0-.35A2.28,2.28,0,0,0,89.67,26.74Z" transform="translate(-1.31 -3.66)"/><path class="cls-2" d="M116,26.74a1.37,1.37,0,0,0-.52-.62,3.18,3.18,0,0,0-1.23-.49c-.39-.08-.78-.14-1.16-.18l-1-.07c-.39,0-.79,0-1.18,0h-2.85c-.44,0-.82,0-1.25,0a.28.28,0,0,1-.18-.05.24.24,0,0,1-.07-.13,2.75,2.75,0,0,1,0-.42,5.48,5.48,0,0,1,0-.81q0-.43,0-.9V11.11q0-.33,0-.66v-.7a6.5,6.5,0,0,0-.09-1.09,4.64,4.64,0,0,0-.29-1,1.9,1.9,0,0,0-.64-.85,2.69,2.69,0,0,0-.86-.4,2.29,2.29,0,0,0-.94,0,4.3,4.3,0,0,0-.82.21,2.24,2.24,0,0,0-1.31,1.28,4.84,4.84,0,0,0-.31,1.44c0,.36,0,.78,0,1.24v1.33c0,.44,0,.81,0,1.12l0,.5c0,.37,0,.74,0,1.11s0,.76,0,1.12v7.76c0,.69,0,1.39,0,2.11a9.39,9.39,0,0,0,.17,2.19,4.19,4.19,0,0,0,.29.93,2.87,2.87,0,0,0,.61.9,2.52,2.52,0,0,0,1,.6,6.13,6.13,0,0,0,1.08.19c.41,0,.81.05,1.19.09s.84.07,1.27.07H111l.78,0h.51a7.28,7.28,0,0,0,.93-.07l.9-.13a2.68,2.68,0,0,0,1.4-.77,2.57,2.57,0,0,0,.61-1.55v-.3a1.9,1.9,0,0,0,0-.35A2.64,2.64,0,0,0,116,26.74Z" transform="translate(-1.31 -3.66)"/><path class="cls-2" d="M125.27,15.88a3.18,3.18,0,0,0-.82-.28l-.41,0-.39-.05a.75.75,0,0,1-.21,0,1.67,1.67,0,0,0-.39,0h-.15a1.57,1.57,0,0,1-.36,0h-.3v-2c0-.12,0-.25,0-.38a1.21,1.21,0,0,1,0-.32c0-.24,0-.48,0-.7s0-.44,0-.69,0-.75,0-1.13,0-.77-.07-1.09a1.73,1.73,0,0,0,0-.43c0-.37-.09-.72-.14-1.05a2.16,2.16,0,0,0-.65-1.17,2.24,2.24,0,0,0-2.35-.47,1.81,1.81,0,0,0-.85.44,2.2,2.2,0,0,0-.49.81,4.49,4.49,0,0,0-.23.83,3.94,3.94,0,0,0-.07.71V27.84a10.89,10.89,0,0,0,.07,1.2,4.66,4.66,0,0,0,.33,1.36,3.13,3.13,0,0,0,.8,1.18,2.31,2.31,0,0,0,1.39.54l.18,0a1.68,1.68,0,0,0,1.32-.57,2.43,2.43,0,0,0,.54-.86,4.17,4.17,0,0,0,.24-1,8.42,8.42,0,0,0,.09-1c0-.33,0-.64,0-.91v-.43c.05-1.06.05-2.16,0-3.25V20.37c.27,0,.58,0,.92,0a8.29,8.29,0,0,0,1.35,0,3,3,0,0,0,1-.48,1.24,1.24,0,0,0,.46-.68c.06-.19.1-.38.15-.55s.07-.37.09-.53,0-.31,0-.49a1.79,1.79,0,0,0-.26-1A1.46,1.46,0,0,0,125.27,15.88Z" transform="translate(-1.31 -3.66)"/><path class="cls-2" d="M140.9,7.85a3.54,3.54,0,0,0-1.14-1,3.75,3.75,0,0,0-1.83-.42h0l-1,0h-1c-.63,0-1.24,0-1.84,0-.93,0-1.89,0-3.14-.07a7.34,7.34,0,0,0-1.41,0,4,4,0,0,0-1.34.41,2.4,2.4,0,0,0-1,1.1,4.39,4.39,0,0,0-.39,1.39,11.37,11.37,0,0,0-.1,1.51,12.93,12.93,0,0,0,0,1.31c0,.34,0,.55,0,.61V24.09c0,.75,0,1.52,0,2.28a6.64,6.64,0,0,0,.52,2.33,2.44,2.44,0,0,0,1,1.15,5,5,0,0,0,1.3.57,8,8,0,0,0,1.3.24c.4,0,.7,0,.9,0H138a6,6,0,0,0,1-.14,5.62,5.62,0,0,0,1.07-.36,2.09,2.09,0,0,0,.93-.77,3.1,3.1,0,0,0,.35-.92c.08-.33.14-.64.19-.95s.07-.58.08-.82,0-.36,0-.38V10.29a5.71,5.71,0,0,0-.13-1.16A3.57,3.57,0,0,0,140.9,7.85Zm-4.56,16.6a6.17,6.17,0,0,1,0,.86c0,.24-.12.29-.17.32a1.29,1.29,0,0,1-.53.18l-.71.08-2.87,0a.38.38,0,0,1-.25-.14.94.94,0,0,1-.13-.3V12.78c0-.22,0-.42,0-.61s0-.31,0-.34a.82.82,0,0,1,.33-.45,1.69,1.69,0,0,1,.87-.15l2.74.06a1.58,1.58,0,0,1,.39.11c.11,0,.15.29.16.4s0,.35,0,.57,0,.48.05.71,0,.5,0,.76Z" transform="translate(-1.31 -3.66)"/><path class="cls-2" d="M151.87,15.91a3.18,3.18,0,0,0-.82-.28l-.41-.05-.38-.05a.78.78,0,0,1-.22,0,1.61,1.61,0,0,0-.39,0h-.14a1.5,1.5,0,0,1-.36,0h-.3V13.37c0-.12,0-.25,0-.38a1.35,1.35,0,0,1,0-.32c0-.24,0-.48,0-.7s0-.44,0-.69,0-.75,0-1.13,0-.77-.08-1.09a1.73,1.73,0,0,0,0-.43c0-.37-.09-.72-.14-1.05a2.18,2.18,0,0,0-.64-1.17,2.26,2.26,0,0,0-2.36-.47,1.86,1.86,0,0,0-.85.44,2.12,2.12,0,0,0-.49.81,5.44,5.44,0,0,0-.23.83,5.13,5.13,0,0,0-.07.71V27.84a10.89,10.89,0,0,0,.07,1.2,5.3,5.3,0,0,0,.33,1.36,3,3,0,0,0,.81,1.18,2.28,2.28,0,0,0,1.39.54l.17,0a1.66,1.66,0,0,0,1.32-.57,2.18,2.18,0,0,0,.54-.86,4.58,4.58,0,0,0,.25-1c0-.33.07-.67.08-1s0-.64,0-.91v-.43c0-1.06,0-2.16,0-3.25V20.4c.26,0,.57,0,.91,0a7.26,7.26,0,0,0,1.35,0,3,3,0,0,0,1-.48,1.21,1.21,0,0,0,.46-.68c.06-.19.11-.38.15-.55a2.8,2.8,0,0,0,.09-.53c0-.15,0-.31,0-.49a1.87,1.87,0,0,0-.26-1A1.52,1.52,0,0,0,151.87,15.91Z" transform="translate(-1.31 -3.66)"/><path class="cls-2" d="M173,20.79a2.13,2.13,0,0,0,.4.39,2.46,2.46,0,0,0,1.26.37,1.58,1.58,0,0,0,.53-.07,2.8,2.8,0,0,0,.45-.21,1.78,1.78,0,0,0,.63-.62,2.42,2.42,0,0,0,.3-.66,3,3,0,0,0,.12-.58c0-.12,0-.2,0-.22V8.67a3.25,3.25,0,0,0,0-.79,2.58,2.58,0,0,0-.26-1.06,1.87,1.87,0,0,0-1.51-1.07,2.32,2.32,0,0,0-1.08.09,1.71,1.71,0,0,0-.77.55,3.41,3.41,0,0,0-.67,1.12,2.9,2.9,0,0,0-.11.79V9s0,.24,0,.59,0,.81,0,1.35v5.25c0,.65,0,1.33-.05,2a4.22,4.22,0,0,0,.5,2.2A3.73,3.73,0,0,0,173,20.79Z" transform="translate(-1.31 -3.66)"/><path class="cls-2" d="M160.61,17.82a3.9,3.9,0,0,0,.54,1.83,1.53,1.53,0,0,0,.87.75,2.35,2.35,0,0,0,1.06.12,2.53,2.53,0,0,0,1-.36,2,2,0,0,0,.76-.84,3.43,3.43,0,0,0,.38-1.58c0-.44,0-.93,0-1.46,0-.19,0-.39,0-.6a2,2,0,0,0,.54.15,5.11,5.11,0,0,0,1.15.05h.27v3.35a3.13,3.13,0,0,0,.21.77,3.64,3.64,0,0,0,.33.6,1.94,1.94,0,0,0,.64.6,2.1,2.1,0,0,0,1.11.32,1.14,1.14,0,0,0,.63-.16l.42-.25a2.27,2.27,0,0,0,.69-.76,2.7,2.7,0,0,0,.3-.85c0-.25.08-.5.1-.78l0-9.6c0-.22,0-.45,0-.68a2.36,2.36,0,0,0-.1-.83q-.09-.24-.15-.45A1.63,1.63,0,0,0,171,6.5a1.94,1.94,0,0,0-1.86-.62,1.92,1.92,0,0,0-1.65,1,4,4,0,0,0-.25,1,2.4,2.4,0,0,0,0,.76v2.83l-.65,0a2.71,2.71,0,0,0-.77.08,3.63,3.63,0,0,0-.55.15c0-.22,0-.45,0-.67,0-.47,0-.89,0-1.27s0-.66-.05-1a2.74,2.74,0,0,0-.34-1.07,1.93,1.93,0,0,0-.41-.55,4.37,4.37,0,0,0-.46-.37l-.11-.06-.23-.07a1.24,1.24,0,0,0-.57-.1,2.92,2.92,0,0,0-.51,0h-.85l-.48,0h-.61a1.26,1.26,0,0,0-.43,0h-3.07c-.32,0-.61,0-.85,0l-.9,0a3.54,3.54,0,0,0-1,.23,3.45,3.45,0,0,0-1,.52,1.6,1.6,0,0,0-.6,1.27,4.53,4.53,0,0,0,.23,1.47,1.23,1.23,0,0,0,1,.95,9.42,9.42,0,0,0,1.91.07c.59,0,1.15-.06,1.66-.06s1.12.07,1.7.09l1.28,0c0,.25,0,.51,0,.79s0,.51,0,.76h-3.28l-1.72,0a3,3,0,0,0-.48.1,3,3,0,0,1-.35.07l-.39.11a1,1,0,0,0-.63.58,2.17,2.17,0,0,0-.24,1,2.78,2.78,0,0,0,.22,1.11,1.17,1.17,0,0,0,.86.63l.43.05h5.57C160.6,17,160.6,17.42,160.61,17.82Z" transform="translate(-1.31 -3.66)"/><path class="cls-2" d="M177.66,29.54a1.7,1.7,0,0,0-.79-1.16c-.32-.21-.6-.42-.85-.62-.75-.6-1.51-1.18-2.27-1.73l-2.31-1.64-2.82-2.16a4.94,4.94,0,0,1-.61-.52,2.2,2.2,0,0,0-1-.56,1.55,1.55,0,0,0-.8,0,3.92,3.92,0,0,0-.66.31,6.13,6.13,0,0,0-.58.42l-.45.36a7.38,7.38,0,0,1-1,.7,8.66,8.66,0,0,0-1.12.74l-2.63,1.89c-.93.66-1.8,1.3-2.62,1.93-.25.21-.55.45-.92.71a2.27,2.27,0,0,0-.86,1.18,1.85,1.85,0,0,0,.08,1.33,2,2,0,0,0,.93,1,2.64,2.64,0,0,0,1,.25,3.85,3.85,0,0,0,1-.11,6.76,6.76,0,0,0,1-.32c.31-.14.58-.27.82-.4a14.92,14.92,0,0,0,1.94-1.22c.65-.48,1.26-1,1.82-1.43.18-.17.4-.35.66-.56l.74-.57c.2-.16.38-.28.53-.38a1.14,1.14,0,0,1,.53-.13A.66.66,0,0,1,167,27c.26.21.51.41.76.59s.66.47,1,.73.71.53,1.07.76c.72.49,1.44,1,2.17,1.4a18.73,18.73,0,0,0,2.3,1.23,3.88,3.88,0,0,0,1.19.35l.19,0a1.89,1.89,0,0,0,1.18-.49,2.29,2.29,0,0,0,.68-.92A1.91,1.91,0,0,0,177.66,29.54Z" transform="translate(-1.31 -3.66)"/><path class="cls-2" d="M38.94,17.58H32.43a3.06,3.06,0,0,0-3.16,3,3,3,0,0,0,2.79,2.91c-1.39,3.61-5.48,6.23-10.3,6.23S12.84,27,11.44,23.43a3,3,0,0,0,2.71-2.9,3.07,3.07,0,0,0-3.17-3H4.47a3.06,3.06,0,0,0-3.16,3,3.06,3.06,0,0,0,3.16,2.95h1C7,30.06,13.7,35,21.76,35s14.77-5,16.27-11.56h.91a3.07,3.07,0,0,0,3.17-2.95A3.07,3.07,0,0,0,38.94,17.58Z" transform="translate(-1.31 -4.3)"/></svg>